<svg width="512" height="512" viewBox="0 0 512 512" fill="none" xmlns="http://www.w3.org/2000/svg">
<rect width="512" height="512" rx="11" fill="black"/>
<path d="M59.7333 404.133V110.933H210.733C238.733 110.933 260.133 113.333 274.933 118.133C289.733 122.933 301.667 131.867 310.733 144.933C319.8 157.867 324.333 173.667 324.333 192.333C324.333 208.6 320.867 222.667 313.933 234.533C307 246.267 297.467 255.8 285.333 263.133C277.6 267.8 267 271.667 253.533 274.733C264.333 278.333 272.2 281.933 277.133 285.533C280.467 287.933 285.267 293.067 291.533 300.933C297.933 308.8 302.2 314.867 304.333 319.133L348.133 404.133H245.733L197.333 314.533C191.2 302.933 185.733 295.4 180.933 291.933C174.4 287.4 167 285.133 158.733 285.133H150.733V404.133H59.7333ZM150.733 229.733H188.933C193.067 229.733 201.067 228.4 212.933 225.733C218.933 224.533 223.8 221.467 227.533 216.533C231.4 211.6 233.333 205.933 233.333 199.533C233.333 190.067 230.333 182.8 224.333 177.733C218.333 172.667 207.067 170.133 190.533 170.133H150.733V229.733Z" fill="white"/>
<path d="M372.133 322.533H459.133V404.133H372.133V322.533Z" fill="white"/>
</svg>
