<?xml version="1.0" encoding="UTF-8"?>
<svg id="Calque_1" xmlns="http://www.w3.org/2000/svg" version="1.1" viewBox="0 0 1728 1117">
  <!-- Generator: Adobe Illustrator 29.3.1, SVG Export Plug-In . SVG Version: 2.1.0 Build 151)  -->
  <path d="M1694.5,52.6C1667.2,4.6,1589.3,1.4,1547,.2c-99.4-2.9-174.9,28.1-183.6,31.8-170.4,72-307,182.4-432.2,272.2-14.4,10.3-357.1,254.5-395.6,211.9-22-24.4,82.9-112.5,54.7-171.5-41.8-87.5-364.1-85.4-440,51-69.8,125.6,111.8,288.6,24.5,423.1-48.7,75-141.8,80.7-150.3,154.9-5.2,45.2,23.4,94.9,58.6,121.4,129.4,97.3,295.8-159.9,640.4-158.4,83,.3,364.1,16.5,460.2-45.2,8.5-5.5,17.7-12.9,24.7-24.4,39-64.3-59.3-141.8-63.9-221-11.3-195.7,549.1-396,559.7-545,2-28.2-9.5-48.4-9.5-48.4Z"/>
</svg>