<svg width="36" height="37" viewBox="0 0 36 37" fill="none" xmlns="http://www.w3.org/2000/svg">
<g opacity="0.4">
<rect x="0.75" y="0.821289" width="34.4013" height="34.5" rx="3.25" stroke="#F3F3F3" stroke-width="1.5"/>
<path d="M8 19.0713H10.0125C10.5046 23.0176 13.871 26.0713 17.9506 26.0713C22.0303 26.0713 25.3966 23.0176 25.8887 19.0713H27.9013C27.3995 24.1246 23.136 28.0713 17.9506 28.0713C12.7653 28.0713 8.50172 24.1246 8 19.0713ZM8 17.0713C8.50172 12.018 12.7653 8.07129 17.9506 8.07129C23.136 8.07129 27.3995 12.018 27.9013 17.0713H25.8887C25.3966 13.125 22.0303 10.0713 17.9506 10.0713C13.871 10.0713 10.5046 13.125 10.0125 17.0713H8ZM17.9506 20.0713C16.8461 20.0713 15.9506 19.1759 15.9506 18.0713C15.9506 16.9667 16.8461 16.0713 17.9506 16.0713C19.0552 16.0713 19.9506 16.9667 19.9506 18.0713C19.9506 19.1759 19.0552 20.0713 17.9506 20.0713Z" fill="#F3F3F3"/>
</g>
</svg>
