<svg width="36" height="36" viewBox="0 0 36 36" fill="none" xmlns="http://www.w3.org/2000/svg">
<g opacity="0.4">
<rect x="0.75" y="0.75" width="34.5" height="34.5" rx="3.25" stroke="#F3F3F3" stroke-width="1.5"/>
<path d="M8 11L15 8L21 11L27.303 8.2987C27.5569 8.18992 27.8508 8.30749 27.9596 8.56131C27.9862 8.62355 28 8.69056 28 8.75827V25L21 28L15 25L8.69696 27.7013C8.44314 27.8101 8.14921 27.6925 8.04043 27.4387C8.01375 27.3765 8 27.3094 8 27.2417V11ZM22 25.3955L26 23.6812V11.0331L22 12.7474V25.3955ZM20 25.2639V12.7361L16 10.7361V23.2639L20 25.2639ZM14 23.2526V10.6045L10 12.3188V24.9669L14 23.2526Z" fill="white"/>
</g>
</svg>
