<svg width="36" height="35" viewBox="0 0 36 35" fill="none" xmlns="http://www.w3.org/2000/svg">
<g opacity="0.4">
<rect x="0.75" y="0.821289" width="34.5" height="32.5" rx="3.25" stroke="#F3F3F3" stroke-width="1.5"/>
<path d="M8 9.06469C8 8.51605 8.45531 8.07129 8.9918 8.07129H27.0082C27.556 8.07129 28 8.51624 28 9.06469V25.0779C28 25.6265 27.5447 26.0713 27.0082 26.0713H8.9918C8.44405 26.0713 8 25.6264 8 25.0779V9.06469ZM10 10.0713V24.0713H26V10.0713H10ZM16.6219 13.4859L21.5008 16.7385C21.6846 16.861 21.7343 17.1094 21.6117 17.2932C21.5824 17.3371 21.5447 17.3748 21.5008 17.4041L16.6219 20.6567C16.4381 20.7793 16.1897 20.7296 16.0672 20.5458C16.0234 20.4801 16 20.4029 16 20.3239V13.8187C16 13.5978 16.1791 13.4187 16.4 13.4187C16.479 13.4187 16.5562 13.4421 16.6219 13.4859Z" fill="#F3F3F3"/>
</g>
</svg>
