<svg width="35" height="38" viewBox="0 0 35 38" fill="none" xmlns="http://www.w3.org/2000/svg">
<g opacity="0.4">
<rect x="0.75" y="0.75" width="33.5" height="36.5" rx="3.25" stroke="#F3F3F3" stroke-width="1.5"/>
<path d="M17.5 8L27 13.5V24.5L17.5 30L8 24.5V13.5L17.5 8ZM17.5 10.311L10 14.6531V23.3469L17.5 27.689L25 23.3469V14.6531L17.5 10.311ZM17.5 23C15.2909 23 13.5 21.2091 13.5 19C13.5 16.7909 15.2909 15 17.5 15C19.7091 15 21.5 16.7909 21.5 19C21.5 21.2091 19.7091 23 17.5 23ZM17.5 21C18.6046 21 19.5 20.1046 19.5 19C19.5 17.8954 18.6046 17 17.5 17C16.3954 17 15.5 17.8954 15.5 19C15.5 20.1046 16.3954 21 17.5 21Z" fill="#F3F3F3"/>
</g>
</svg>
