<svg width="36" height="34" viewBox="0 0 36 34" fill="none" xmlns="http://www.w3.org/2000/svg">
<g opacity="0.4">
<rect x="0.75" y="0.75" width="34.5" height="31.5711" rx="3.25" stroke="#F3F3F3" stroke-width="1.5"/>
<path d="M26 18C26 20.2091 25.1046 22.2091 23.6569 23.6569L25.0711 25.0711C26.8807 23.2614 28 20.7614 28 18C28 12.4771 23.5228 8 18 8C12.4771 8 8 12.4771 8 18C8 20.7614 9.11929 23.2614 10.9289 25.0711L12.3432 23.6569C10.8954 22.2091 10 20.2091 10 18C10 13.5817 13.5817 10 18 10C22.4183 10 26 13.5817 26 18ZM21.293 13.293L16.5 17.5L18.5 19.5L22.7072 14.7072L21.293 13.293Z" fill="#F3F3F3"/>
</g>
</svg>
