<?xml version="1.0" encoding="UTF-8"?>
<svg id="Calque_1" xmlns="http://www.w3.org/2000/svg" version="1.1" viewBox="0 0 36 36">
  <!-- Generator: Adobe Illustrator 29.3.1, SVG Export Plug-In . SVG Version: 2.1.0 Build 151)  -->
  <defs>
    <style>
      .st0 {
        opacity: .4;
      }

      .st1 {
        fill: none;
        stroke: #f3f3f3;
        stroke-width: 1.5px;
      }

      .st2 {
        fill: #f3f3f3;
      }
    </style>
  </defs>
  <g class="st0">
    <rect class="st1" x=".8" y=".8" width="34.5" height="34.5" rx="3.2" ry="3.2" shape-rendering="crispEdges"/>
    <path class="st2" d="M16.5,23h-6.5v-2h6.5c1.9,0,3.5,1.6,3.5,3.5s-1.6,3.5-3.5,3.5-2.8-.9-3.3-2.3l1.9-.7c.2.6.8,1,1.4,1s1.5-.7,1.5-1.5-.7-1.5-1.5-1.5ZM11,17h13.5c1.9,0,3.5,1.6,3.5,3.5s-1.6,3.5-3.5,3.5-2.8-.9-3.3-2.3l1.9-.7c.2.6.8,1,1.4,1s1.5-.7,1.5-1.5-.7-1.5-1.5-1.5h-13.5c-1.7,0-3-1.3-3-3s1.3-3,3-3h8.5c.8,0,1.5-.7,1.5-1.5s-.7-1.5-1.5-1.5-1.2.4-1.4,1l-1.9-.7c.5-1.3,1.8-2.3,3.3-2.3s3.5,1.6,3.5,3.5-1.6,3.5-3.5,3.5h-8.5c-.6,0-1,.4-1,1s.4,1,1,1Z"/>
  </g>
</svg>